<svg xmlns="http://www.w3.org/2000/svg" viewBox="0 0 488 149" width="488" height="149" role="img"><title>Mirage wordmark</title><desc>Mirage in Inter SemiBold.</desc><g fill="#FBF9F3"><path d="M150 0V1490H552L835 721Q850 678 868.5 610.5Q887 543 906.5 465.0Q926 387 943.5 312.5Q961 238 973 181H919Q931 237 948.5 310.5Q966 384 985.5 462.5Q1005 541 1023.5 609.0Q1042 677 1056 721L1336 1490H1739V0H1473V752Q1473 800 1474.0 868.0Q1475 936 1477.0 1014.0Q1479 1092 1481.0 1171.5Q1483 1251 1483 1323H1502Q1482 1244 1458.5 1161.5Q1435 1079 1412.0 1001.5Q1389 924 1368.5 859.0Q1348 794 1333 752L1058 0H831L552 752Q537 794 516.5 857.5Q496 921 472.5 998.0Q449 1075 425.5 1158.5Q402 1242 379 1323H401Q402 1256 404.0 1177.5Q406 1099 407.5 1020.0Q409 941 410.5 871.5Q412 802 412 752V0Z" transform="translate(24.000 122.000) scale(0.067114 -0.067114)"/><path d="M138 0V1118H398V0ZM268 1276Q206 1276 161.5 1318.0Q117 1360 117 1418Q117 1478 161.5 1519.5Q206 1561 268 1561Q331 1561 375.5 1519.5Q420 1478 420 1419Q420 1360 375.5 1318.0Q331 1276 268 1276Z" transform="translate(146.752 122.000) scale(0.067114 -0.067114)"/><path d="M138 0V1118H390V931H402Q432 1028 507.0 1080.5Q582 1133 678 1133Q700 1133 727.0 1131.0Q754 1129 773 1126V887Q757 892 721.0 896.0Q685 900 650 900Q578 900 520.5 869.0Q463 838 430.5 783.5Q398 729 398 658V0Z" transform="translate(178.698 122.000) scale(0.067114 -0.067114)"/><path d="M450 -23Q344 -23 259.0 15.5Q174 54 125.0 129.0Q76 204 76 314Q76 409 111.5 471.0Q147 533 207.5 570.0Q268 607 344.0 626.0Q420 645 502 653Q599 664 660.0 672.0Q721 680 749.5 698.0Q778 716 778 754V759Q778 814 756.0 852.5Q734 891 690.5 911.5Q647 932 583 932Q518 932 470.5 912.0Q423 892 393.0 860.0Q363 828 349 791L108 840Q141 939 210.0 1003.5Q279 1068 374.5 1100.0Q470 1132 582 1132Q661 1132 741.5 1113.5Q822 1095 889.0 1051.0Q956 1007 997.0 933.0Q1038 859 1038 747V0H789V154H779Q754 107 710.5 66.5Q667 26 602.5 1.5Q538 -23 450 -23ZM517 170Q598 170 656.5 202.0Q715 234 747.5 286.5Q780 339 780 401V533Q767 523 736.5 514.0Q706 505 668.5 498.0Q631 491 594.5 486.0Q558 481 533 478Q475 470 428.0 452.0Q381 434 354.5 401.5Q328 369 328 317Q328 269 352.5 236.5Q377 204 419.5 187.0Q462 170 517 170Z" transform="translate(229.235 122.000) scale(0.067114 -0.067114)"/><path d="M620 -442Q486 -442 386.5 -408.0Q287 -374 223.5 -315.5Q160 -257 132 -183L352 -104Q370 -135 401.5 -168.0Q433 -201 485.5 -222.5Q538 -244 619 -244Q740 -244 813.0 -187.5Q886 -131 886 -11V200H864Q845 160 808.0 117.5Q771 75 708.5 46.0Q646 17 549 17Q421 17 316.5 77.5Q212 138 150.5 259.0Q89 380 89 562Q89 746 151.0 873.0Q213 1000 317.5 1066.0Q422 1132 551 1132Q650 1132 714.0 1099.0Q778 1066 816.0 1019.5Q854 973 874 933H888V1118H1143V-3Q1143 -152 1075.0 -249.5Q1007 -347 889.0 -394.5Q771 -442 620 -442ZM622 222Q707 222 766.0 262.5Q825 303 856.0 380.0Q887 457 887 564Q887 670 856.5 749.5Q826 829 767.0 873.5Q708 918 622 918Q534 918 474.5 871.5Q415 825 385.0 745.5Q355 666 355 564Q355 461 385.5 384.0Q416 307 475.5 264.5Q535 222 622 222Z" transform="translate(304.134 122.000) scale(0.067114 -0.067114)"/><path d="M632 -23Q463 -23 341.5 48.0Q220 119 154.5 248.0Q89 377 89 552Q89 725 153.5 855.0Q218 985 336.5 1058.5Q455 1132 615 1132Q717 1132 809.5 1099.0Q902 1066 973.5 997.0Q1045 928 1085.5 821.5Q1126 715 1126 568V486H212V663H997L875 611Q875 705 846.0 776.5Q817 848 759.5 888.0Q702 928 616 928Q530 928 470.0 887.5Q410 847 378.5 779.5Q347 712 347 629V507Q347 401 383.0 328.0Q419 255 484.0 218.0Q549 181 635 181Q692 181 738.5 197.5Q785 214 819.0 246.5Q853 279 870 326L1109 277Q1082 187 1017.0 119.5Q952 52 854.5 14.5Q757 -23 632 -23Z" transform="translate(386.081 122.000) scale(0.067114 -0.067114)"/></g></svg>